<svg xmlns="http://www.w3.org/2000/svg" xmlns:xlink="http://www.w3.org/1999/xlink" width="500" zoomAndPan="magnify" viewBox="0 0 375 374.999991" height="500" preserveAspectRatio="xMidYMid meet" version="1.0"><defs><g/></defs><path fill="#127dc3" d="M 146.996094 218.320312 C 119.691406 195.589844 108.777344 163.691406 122.613281 147.070312 C 127.574219 141.109375 135.042969 137.921875 143.839844 137.335938 C 130.363281 135.335938 118.570312 138.257812 111.65625 146.566406 C 97.816406 163.1875 108.734375 195.089844 136.035156 217.816406 C 153.554688 232.398438 173.558594 239.664062 189.304688 238.609375 C 175.820312 236.609375 160.652344 229.691406 146.996094 218.320312 " fill-opacity="1" fill-rule="nonzero"/><path fill="#ffde59" d="M 213.90625 193 C 215.011719 200.28125 213.757812 206.945312 209.792969 212.0625 C 198.726562 226.339844 170.746094 223.183594 147.292969 205.011719 C 135.5625 195.921875 127.1875 184.800781 123.128906 174.160156 C 125.105469 187.191406 134.632812 202.199219 149.679688 213.859375 C 173.128906 232.03125 201.113281 235.1875 212.175781 220.910156 C 217.707031 213.773438 217.964844 203.632812 213.90625 193 " fill-opacity="1" fill-rule="nonzero"/><g fill="#127dc3" fill-opacity="1"><g transform="translate(142.495483, 192.465955)"><g><path d="M 3.03125 0 L 8.765625 0 L 8.765625 -7.03125 L 12.914062 -7.03125 C 19.007812 -7.03125 22.9375 -10.605469 22.9375 -16.121094 C 22.9375 -21.675781 19.007812 -25.246094 12.914062 -25.246094 L 3.03125 -25.246094 Z M 8.726562 -11.972656 L 8.726562 -20.234375 L 12.441406 -20.234375 C 15.4375 -20.234375 17.097656 -18.71875 17.097656 -16.085938 C 17.097656 -13.453125 15.4375 -11.972656 12.441406 -11.972656 Z M 8.726562 -11.972656 "/></g></g></g><g fill="#127dc3" fill-opacity="1"><g transform="translate(165.031584, 192.465955)"><g><path d="M 2.742188 0 L 8.222656 0 L 8.222656 -26.691406 L 2.742188 -26.691406 Z M 2.742188 0 "/></g></g></g><g fill="#127dc3" fill-opacity="1"><g transform="translate(174.550557, 192.465955)"><g><path d="M 9.054688 0.359375 C 11.867188 0.359375 14.175781 -0.539062 15.796875 -2.199219 L 16.410156 0 L 20.488281 0 L 20.488281 -11.398438 C 20.488281 -16.410156 17.097656 -19.441406 11.433594 -19.441406 C 6.601562 -19.441406 3.425781 -17.132812 2.742188 -13.019531 L 8.007812 -13.019531 C 8.332031 -14.355469 9.703125 -15.257812 11.46875 -15.257812 C 13.632812 -15.257812 15.113281 -14.03125 15.113281 -12.15625 L 15.113281 -11.289062 L 8.257812 -11.289062 C 4.328125 -11.289062 1.804688 -9.015625 1.804688 -5.519531 C 1.804688 -1.875 4.582031 0.359375 9.054688 0.359375 Z M 7.214844 -5.734375 C 7.214844 -7.03125 8.296875 -7.863281 9.953125 -7.863281 L 15.148438 -7.863281 C 15.039062 -5.300781 13.054688 -3.570312 10.316406 -3.570312 C 8.441406 -3.570312 7.214844 -4.4375 7.214844 -5.734375 Z M 7.214844 -5.734375 "/></g></g></g><g fill="#127dc3" fill-opacity="1"><g transform="translate(195.968845, 192.465955)"><g><path d="M 11.035156 0.503906 C 13.777344 0.503906 16.121094 -0.46875 17.816406 -2.164062 L 18.464844 0 L 22.542969 0 L 22.542969 -26.691406 L 17.058594 -26.691406 L 17.058594 -17.457031 C 15.4375 -18.71875 13.382812 -19.441406 11.035156 -19.441406 C 5.410156 -19.441406 1.40625 -15.292969 1.40625 -9.484375 C 1.40625 -3.605469 5.410156 0.503906 11.035156 0.503906 Z M 6.816406 -9.484375 C 6.816406 -12.550781 8.945312 -14.75 12.046875 -14.75 C 15.113281 -14.75 17.242188 -12.550781 17.242188 -9.484375 C 17.242188 -6.382812 15.113281 -4.21875 12.046875 -4.21875 C 8.945312 -4.21875 6.816406 -6.382812 6.816406 -9.484375 Z M 6.816406 -9.484375 "/></g></g></g><g fill="#127dc3" fill-opacity="1"><g transform="translate(219.803047, 192.465955)"><g><path d="M 9.054688 0.359375 C 11.867188 0.359375 14.175781 -0.539062 15.796875 -2.199219 L 16.410156 0 L 20.488281 0 L 20.488281 -11.398438 C 20.488281 -16.410156 17.097656 -19.441406 11.433594 -19.441406 C 6.601562 -19.441406 3.425781 -17.132812 2.742188 -13.019531 L 8.007812 -13.019531 C 8.332031 -14.355469 9.703125 -15.257812 11.46875 -15.257812 C 13.632812 -15.257812 15.113281 -14.03125 15.113281 -12.15625 L 15.113281 -11.289062 L 8.257812 -11.289062 C 4.328125 -11.289062 1.804688 -9.015625 1.804688 -5.519531 C 1.804688 -1.875 4.582031 0.359375 9.054688 0.359375 Z M 7.214844 -5.734375 C 7.214844 -7.03125 8.296875 -7.863281 9.953125 -7.863281 L 15.148438 -7.863281 C 15.039062 -5.300781 13.054688 -3.570312 10.316406 -3.570312 C 8.441406 -3.570312 7.214844 -4.4375 7.214844 -5.734375 Z M 7.214844 -5.734375 "/></g></g></g><g fill="#ffde59" fill-opacity="1"><g transform="translate(241.225945, 192.465955)"><g><path d="M 0.324219 0 L 6.457031 0 L 8.152344 -4.363281 L 18.179688 -4.363281 L 19.875 0 L 26.003906 0 L 15.976562 -25.246094 L 10.351562 -25.246094 Z M 9.628906 -8.871094 L 13.164062 -18.105469 L 16.734375 -8.871094 Z M 9.628906 -8.871094 "/></g></g></g><g fill="#ffde59" fill-opacity="1"><g transform="translate(266.105854, 192.465955)"><g><path d="M 3.03125 0 L 8.765625 0 L 8.765625 -25.246094 L 3.03125 -25.246094 Z M 3.03125 0 "/></g></g></g></svg>